<svg width="477" height="569" viewBox="0 0 477 569" fill="none" xmlns="http://www.w3.org/2000/svg">
<mask id="mask0_201_102" style="mask-type:luminance" maskUnits="userSpaceOnUse" x="-128" y="0" width="605" height="605">
<path d="M357.572 -1.8537e-05L-128 119.245L-8.75493 604.818L476.818 485.572L357.572 -1.8537e-05Z" fill="white"/>
</mask>
<g mask="url(#mask0_201_102)">
<path d="M98.471 438.202C108.133 424.54 103.238 412.552 115.271 403.4C130.328 391.946 145.691 405.675 145.691 405.675C145.691 405.675 146.523 407.36 147.27 410.025C146.555 405.15 144.835 401.669 144.835 401.669C144.835 401.669 129.473 387.94 114.415 399.393C99.3569 410.846 110.812 426.741 87.0666 444.802C91.1656 441.684 94.9451 439.591 98.471 438.202Z" fill="white"/>
<path d="M146.159 401.014C146.076 400.844 145.959 400.692 145.82 400.567C145.653 400.42 141.691 396.916 135.759 394.841C127.782 392.053 120.09 393.218 113.52 398.217C106.441 403.603 104.739 410.071 102.935 416.919C100.771 425.15 98.315 434.48 85.4999 444.227C85.0187 444.595 84.8252 445.201 84.9611 445.755C85.0082 445.947 85.0942 446.129 85.2202 446.296C85.7141 446.945 86.6407 447.07 87.2897 446.578C100.085 436.846 109.934 437.243 118.624 437.596C122.919 437.769 127.072 437.939 131.224 436.919C134.069 436.22 136.914 434.963 139.801 432.766C146.371 427.77 149.547 420.67 148.99 412.237C148.575 405.968 146.257 401.214 146.159 401.014ZM138.012 430.418C131.76 435.171 125.728 434.928 118.744 434.645C113.793 434.445 108.486 434.229 102.511 435.697C100.639 436.156 98.7001 436.782 96.6853 437.624C102.405 430.546 104.174 423.82 105.792 417.672C107.534 411.053 109.04 405.339 115.308 400.569C128.424 390.59 141.693 400.952 143.63 402.58C144.609 404.775 151.014 420.529 138.012 430.418Z" fill="#371A45"/>
<path d="M138.012 430.418C131.76 435.171 125.728 434.928 118.744 434.645C113.793 434.445 108.486 434.229 102.511 435.697C100.639 436.156 98.7001 436.782 96.6854 437.624C102.405 430.546 104.174 423.82 105.792 417.672C107.534 411.053 109.04 405.339 115.308 400.569C128.424 390.59 141.693 400.952 143.63 402.58C144.609 404.774 151.014 420.529 138.012 430.418Z" fill="#F25F5F"/>
<path d="M147.576 414.177C146.378 417.781 144.079 421.373 140.025 424.457C127.571 433.93 116.499 424.415 99.6079 431.06C97.1096 435.464 93.3034 440.058 87.0665 444.802C110.812 426.74 123.849 443.045 138.906 431.592C145.688 426.434 147.562 419.854 147.576 414.177Z" fill="#371A45"/>
<path d="M105.967 430.905C119.791 420.39 132.89 428.524 141.656 421.856C150.423 415.188 143.504 402.327 143.504 402.327C143.504 402.327 132.957 392.226 124.19 398.894C115.424 405.562 119.791 420.39 105.967 430.905Z" fill="#FFD553"/>
<path d="M243.142 249.026C239.851 255.986 219.917 268.033 193.581 267.092C191.033 267.005 188.426 266.791 185.769 266.442L184.499 257.648L183.484 250.609C183.484 250.609 187.64 250.215 193.372 249.274C197.9 248.534 203.41 247.453 208.635 245.96C213.56 244.552 218.236 242.777 221.585 240.571C221.585 240.571 222.635 233.461 225.06 232.878C228.022 232.165 229.513 237.302 229.513 237.302C229.513 237.302 236.712 231.928 240.426 232.717C245.948 233.888 246.757 241.393 243.142 249.026Z" fill="white"/>
<g opacity="0.2">
<path d="M248.373 243.76C248.036 245.513 247.388 247.386 246.442 249.284C242.742 256.689 218.179 270.945 186.634 268.802L184.09 253.964C184.09 253.964 185.438 253.78 187.665 253.41L191.83 261.286C217.312 267.614 243.097 251.373 248.373 243.76Z" fill="#371A45"/>
</g>
<path d="M191.413 268.272C189.493 268.148 187.547 267.956 185.57 267.688C184.762 267.579 184.231 266.919 184.385 266.214C184.538 265.509 185.32 265.027 186.125 265.137C215.763 269.154 238.502 255.408 241.683 248.659C243.953 243.841 244.396 238.928 242.812 236.141C242.157 234.989 241.193 234.268 239.948 233.999C237.918 233.559 233.155 236.237 230.422 238.279L228.596 239.644L228.025 237.665C227.564 236.081 226.322 233.921 225.407 234.099C224.616 234.507 223.492 237.632 223.04 240.688L222.958 241.242L222.439 241.584C210.865 249.213 184.785 251.704 183.681 251.806C182.861 251.882 182.147 251.369 182.086 250.66C182.025 249.951 182.641 249.315 183.462 249.238C183.72 249.215 209.006 246.799 220.175 239.874C220.617 237.241 221.82 232.301 224.679 231.617C227.581 230.921 229.332 233.336 230.215 235.16C232.816 233.443 237.507 230.789 240.759 231.492C242.828 231.94 244.465 233.131 245.492 234.938C247.461 238.401 247.056 244.006 244.435 249.567C240.764 257.356 219.23 270.059 191.413 268.272Z" fill="#371A45"/>
<path d="M218.942 269.676C218.779 269.615 218.612 269.498 218.459 269.324C213.47 263.666 213.053 245.174 213.022 243.084C213.011 242.338 213.444 241.886 213.989 242.075C213.994 242.077 214 242.079 214.005 242.081C214.543 242.281 214.985 243.032 214.996 243.771C215.075 249.02 216.025 263.484 219.419 267.334C219.896 267.874 220.067 268.758 219.802 269.308C219.622 269.68 219.288 269.804 218.942 269.676Z" fill="#371A45"/>
<path d="M227.734 229.655C227.744 229.742 227.747 229.898 227.752 230.028L227.765 230.442C227.78 230.723 227.783 231.003 227.801 231.288C227.822 231.855 227.868 232.43 227.922 233.013C227.973 233.597 228.056 234.186 228.132 234.8C228.191 235.424 228.299 236.049 228.346 236.784C227.862 236.323 227.459 235.734 227.134 235.099C226.964 234.782 226.832 234.449 226.698 234.112C226.582 233.773 226.459 233.429 226.367 233.082C226.169 232.387 226.03 231.681 225.946 230.979C225.911 230.63 225.877 230.278 225.873 229.932C225.871 229.758 225.868 229.585 225.877 229.412C225.882 229.231 225.894 229.079 225.919 228.861C225.993 228.234 226.454 227.931 226.948 228.185C227.354 228.394 227.656 228.911 227.712 229.436L227.734 229.655Z" fill="#371A45"/>
<path d="M121.93 274.019C116.025 281.22 115.735 308.676 121.192 323.66C126.649 338.643 154.146 333.113 169.587 328.792C185.027 324.47 176.331 289.295 173.813 279.918C169.879 265.277 130.68 263.349 121.93 274.019Z" fill="white"/>
<g opacity="0.2">
<path d="M169.587 328.791C154.146 333.113 126.651 338.641 121.191 323.659C120.478 321.696 119.861 319.522 119.345 317.205C124.473 319.529 129.723 315.051 129.431 310.742C127.625 284.142 134.72 272.021 138.492 267.543C152.975 266.067 171.198 270.177 173.811 279.92C176.333 289.294 185.027 324.47 169.587 328.791Z" fill="#371A45"/>
</g>
<path d="M164.59 331.867C145.784 336.486 124.644 338.113 119.592 324.242C114.313 309.746 113.844 281.194 120.613 272.939C126.615 265.62 144.229 264.084 157.107 266.858C167.348 269.065 173.864 273.546 175.458 279.476C180.071 296.65 185.502 326.106 170.046 330.432C168.261 330.931 166.437 331.414 164.59 331.867ZM132.704 270.216C128.422 271.267 125.025 272.931 123.247 275.099C117.794 281.749 117.539 308.652 122.793 323.076C127.694 336.533 153.927 331.405 169.128 327.152C182.599 323.381 174.861 290.384 172.168 280.36C170.941 275.792 165.19 272.084 156.39 270.188C148.215 268.427 139.385 268.575 132.704 270.216Z" fill="#371A45"/>
<path d="M129.802 299.475L122.219 298.418C120.505 298.179 118.965 299.494 118.942 301.224C118.866 307.178 119.48 319.328 125.696 320.32C133.229 321.522 133.714 313.054 132.258 301.941C132.09 300.661 131.081 299.653 129.802 299.475Z" fill="white"/>
<path d="M132.239 301.927C133.722 313.036 133.255 321.508 125.72 320.321C122.626 319.837 120.912 316.58 119.983 312.699C120.824 313.669 121.851 314.327 123.111 314.524C129.856 315.583 130.94 308.904 130.021 299.516C131.187 299.769 132.083 300.73 132.239 301.927Z" fill="#371A45"/>
<path d="M128.875 321.798C127.863 322.047 126.728 322.073 125.476 321.876C118.591 320.794 117.257 310.048 117.35 301.225C117.364 299.951 117.925 298.742 118.89 297.909C119.859 297.073 121.141 296.694 122.408 296.868L129.993 297.908C131.972 298.179 133.538 299.746 133.801 301.72C135.163 311.926 134.534 317.463 131.697 320.234C130.904 321.01 129.96 321.532 128.875 321.798ZM121.488 300.011C121.292 300.059 121.107 300.154 120.947 300.292C120.782 300.435 120.504 300.75 120.499 301.258C120.414 309.293 121.805 318.112 125.965 318.766C127.547 319.015 128.702 318.758 129.497 317.982C132.414 315.132 131.109 305.35 130.68 302.136C130.604 301.563 130.145 301.106 129.566 301.027L121.98 299.987C121.812 299.964 121.646 299.972 121.488 300.011Z" fill="#371A45"/>
<path d="M120.926 274.302L129.987 276.063C133.007 276.67 136.017 277.265 139.043 277.972C139.501 278.079 139.786 278.538 139.679 278.996C139.578 279.427 139.166 279.705 138.736 279.647L138.721 279.645C135.713 279.229 132.651 278.913 129.605 278.589L120.448 277.674L120.431 277.673C119.494 277.579 118.81 276.744 118.904 275.807C118.998 274.87 119.833 274.186 120.77 274.279C120.822 274.284 120.876 274.292 120.926 274.302Z" fill="#371A45"/>
<path d="M210.006 294.998C210.006 294.998 230.559 298.252 234.905 302.316C239.252 306.381 227.703 309.343 227.703 309.343" fill="white"/>
<path d="M228.109 310.997C227.592 311.124 227.044 311.002 226.63 310.666L208.933 296.322C208.335 295.836 208.137 295.009 208.45 294.305C208.764 293.602 209.511 293.195 210.272 293.316C212.429 293.658 231.473 296.776 236.069 301.073C237.682 302.581 237.724 304.056 237.476 305.027C236.57 308.57 230.09 310.489 228.125 310.993L228.109 310.997ZM216.259 297.874L228.094 307.467C231.153 306.561 233.948 305.075 234.176 304.183C234.198 304.098 234.053 303.852 233.742 303.561C231.567 301.527 223.446 299.35 216.259 297.874Z" fill="#371A45"/>
<path d="M230.465 311.58C230.465 311.58 193.414 337.466 178.771 339.861C164.132 342.255 148.105 343.779 140.566 316.742C135.882 299.935 140.167 281.214 144.085 269.458C146.469 262.296 148.715 257.715 148.715 257.715L188.741 250.025C188.741 250.025 189.405 252.071 190.573 255.45C191.301 257.56 192.227 260.187 193.311 263.156C194.867 267.421 196.746 272.392 198.838 277.556C202.044 285.467 205.749 293.825 209.539 300.778C211.177 303.786 224.889 301.353 230.465 311.58Z" fill="white"/>
<path d="M195.24 266.744C197.903 271.203 199.947 275.869 202 280.53C204.063 285.183 206.037 289.868 208.227 294.441C208.778 295.582 209.345 296.714 209.92 297.84L210.8 299.519L211.021 299.938L211.034 299.963L211.035 299.957L211.033 299.946C211.031 299.938 211.027 299.932 211.022 299.927C211.018 299.922 211.009 299.918 211.004 299.917C211.009 299.917 211.014 299.918 211.018 299.92C211.027 299.925 211.025 299.931 211.036 299.943C211.063 299.957 211.089 299.973 211.113 299.99C211.144 300.026 211.264 300.066 211.335 300.11C211.706 300.285 212.264 300.441 212.832 300.574C213.404 300.709 214.014 300.827 214.637 300.944C215.881 301.177 217.172 301.41 218.467 301.71C221.052 302.306 223.705 303.158 226.115 304.645C227.316 305.384 228.447 306.277 229.437 307.313C230.43 308.347 231.277 309.519 231.962 310.764L232.701 312.107L231.443 312.976C225.541 317.053 219.572 320.956 213.495 324.738C207.415 328.507 201.243 332.145 194.831 335.425C191.617 337.053 188.357 338.61 184.906 339.881C183.183 340.519 181.418 341.094 179.507 341.449C179.02 341.555 178.596 341.612 178.149 341.686L176.816 341.893C175.925 342.028 175.03 342.158 174.128 342.268C170.53 342.716 166.82 342.97 163.069 342.548C161.198 342.336 159.322 341.948 157.505 341.33C155.689 340.715 153.937 339.867 152.326 338.809C150.714 337.75 149.26 336.475 147.968 335.081C146.678 333.684 145.522 332.176 144.547 330.58L144.17 329.987L143.826 329.378L143.144 328.159L142.525 326.914L142.217 326.291L141.938 325.657L141.382 324.39C141.204 323.965 141.046 323.534 140.878 323.106C140.532 322.253 140.241 321.386 139.949 320.519C138.79 317.069 137.912 313.458 137.423 309.83C136.923 306.199 136.754 302.54 136.84 298.9C137.01 291.614 138.205 284.424 139.969 277.42C140.852 273.919 141.73 270.404 143.014 267.022C144.301 263.648 145.831 260.349 148.205 257.467C148.41 257.218 148.778 257.182 149.026 257.387C149.196 257.527 149.266 257.742 149.229 257.944L149.225 257.967C148.559 261.527 147.501 264.875 146.411 268.213C145.356 271.559 144.139 274.858 143.278 278.263C141.548 285.06 140.41 292.017 140.245 298.982C140.163 302.462 140.325 305.941 140.797 309.366C141.262 312.798 142.072 316.138 143.18 319.44C143.456 320.261 143.731 321.082 144.056 321.879C144.213 322.28 144.361 322.686 144.527 323.082L145.045 324.26L145.303 324.85L145.587 325.423L146.157 326.57L146.78 327.681L147.092 328.236L147.432 328.769C148.313 330.214 149.339 331.544 150.462 332.762C151.589 333.977 152.833 335.066 154.2 335.964C156.932 337.77 160.121 338.797 163.454 339.164C166.792 339.541 170.245 339.322 173.704 338.888C174.569 338.782 175.437 338.656 176.307 338.525L177.613 338.322C178.044 338.251 178.503 338.188 178.886 338.1C179.287 338.009 179.683 337.959 180.088 337.838L181.302 337.51C182.112 337.244 182.924 336.998 183.731 336.684C186.968 335.494 190.149 333.979 193.286 332.389C199.559 329.181 205.673 325.581 211.698 321.844C217.715 318.1 223.673 314.204 229.492 310.184L228.972 312.395C227.88 310.397 226.292 308.743 224.331 307.547C222.375 306.336 220.092 305.578 217.702 305.03C216.504 304.752 215.277 304.529 214.005 304.291C213.371 304.171 212.724 304.048 212.052 303.89C211.377 303.725 210.688 303.558 209.896 303.197C209.687 303.087 209.503 303.017 209.276 302.858L208.954 302.639C208.843 302.55 208.728 302.441 208.619 302.338C208.41 302.17 208.168 301.792 208.03 301.567L207.799 301.14L206.875 299.431C206.272 298.286 205.677 297.137 205.101 295.982C203.941 293.673 202.805 291.357 201.732 289.014C200.654 286.673 199.656 284.299 198.698 281.911C196.8 277.13 195.107 272.266 194.176 267.142C194.119 266.829 194.327 266.529 194.641 266.472C194.884 266.427 195.12 266.544 195.24 266.744Z" fill="#371A45"/>
<path d="M168.894 414.96L162.08 417.802C158.997 419.088 155.458 418.577 152.864 416.472C145.141 410.205 139.28 401.944 135.916 392.583C134.786 389.44 135.474 385.931 137.706 383.446L142.64 377.953" fill="#00AAFF"/>
<path d="M144.897 381.706L140.011 387.146C138.78 388.517 137.973 390.173 137.628 391.922C137.286 393.67 137.407 395.511 138.034 397.249C138.515 398.59 139.045 399.91 139.619 401.21C138.259 398.729 137.092 396.138 136.13 393.456C135.565 391.887 135.453 390.221 135.765 388.639C136.072 387.059 136.803 385.564 137.919 384.319L142.854 378.826L144.897 381.706Z" fill="white"/>
<path d="M144 406.229C146.151 408.753 148.536 411.087 151.132 413.194C153.725 415.299 157.264 415.809 160.348 414.522L166.702 411.871L142.64 377.953L141.586 379.126L159.426 404.27L152.61 407.114C149.761 408.302 146.522 407.952 144 406.229ZM157.235 401.182L141.586 379.126L141.918 378.756L157.694 400.99L157.235 401.182Z" fill="#371A45"/>
<path d="M157.409 362.785C151.954 356.473 136.989 350.024 116.032 371.873C115.757 372.16 115.979 372.638 116.375 372.613C120.687 372.335 140.933 370.873 146.973 380.106" fill="#EC1C24"/>
<path d="M120.487 371.962C118.612 372.018 117.124 372.121 116.269 372.175C115.871 372.201 115.651 371.725 115.925 371.437C136.882 349.587 151.847 356.036 157.302 362.348L156.171 364.224C149.901 359.245 137.331 356.386 120.487 371.962Z" fill="white"/>
<path d="M147.379 381.76C146.697 381.928 145.954 381.659 145.548 381.038C143.529 377.952 137.095 372.973 116.689 374.299L116.485 374.312C115.598 374.369 114.783 373.885 114.408 373.078C114.033 372.272 114.188 371.336 114.803 370.694C124.991 360.073 134.855 354.809 144.12 355.05C152.295 355.261 157.038 359.751 158.698 361.671C159.313 362.383 159.234 363.458 158.523 364.073C157.811 364.688 156.735 364.61 156.12 363.898C154.757 362.321 150.849 358.631 144.032 358.455C136.55 358.26 128.138 362.497 119.567 370.741C138.285 370.051 145.586 374.875 148.398 379.174C148.913 379.961 148.693 381.016 147.905 381.531C147.739 381.64 147.561 381.715 147.379 381.76Z" fill="#371A45"/>
<path d="M187.586 405.32C191.741 412.554 193.152 429.189 165.606 441.75C165.245 441.915 164.867 441.548 165.022 441.182C166.709 437.204 174.492 418.175 167.773 409.424" fill="#D25658"/>
<path d="M165.608 441.751C165.245 441.913 164.868 441.547 165.023 441.181C165.886 439.144 168.349 433.157 169.643 426.625C170.868 420.453 171.045 413.791 167.842 409.519C167.82 409.488 167.794 409.456 167.771 409.425L167.891 409.399L187.584 405.32C188.75 407.35 189.701 410.121 189.853 413.337C190.252 421.571 185.422 432.713 165.608 441.751Z" fill="#EC1C24"/>
<path d="M169.643 426.625C170.868 420.453 171.045 413.792 167.842 409.519C167.859 409.48 167.874 409.438 167.892 409.399L187.584 405.32C188.75 407.35 189.701 410.121 189.853 413.337C186.166 418.432 179.869 423.269 169.643 426.625Z" fill="#371A45"/>
<path d="M165.929 443.433C165.222 443.607 164.472 443.41 163.933 442.885C163.295 442.265 163.107 441.335 163.455 440.517C165.628 435.39 172.267 418.074 166.422 410.461C165.849 409.715 165.99 408.646 166.736 408.073C167.482 407.5 168.551 407.641 169.124 408.386C175.071 416.133 170.955 430.568 167.817 438.798C178.284 433.494 184.989 426.972 187.287 419.818C189.504 412.916 186.946 407.625 186.109 406.168C185.641 405.353 185.922 404.312 186.738 403.843C187.553 403.374 188.594 403.656 189.063 404.472C190.361 406.732 193.102 412.852 190.53 420.86C187.684 429.719 179.537 437.269 166.313 443.299C166.188 443.357 166.059 443.401 165.929 443.433Z" fill="#371A45"/>
<path d="M286.347 303.596C286.347 303.596 289.996 346.486 242.775 385.128C202.545 418.048 168.412 415.079 168.412 415.079C160.258 409.514 153.536 402.208 148.669 393.779C145.844 388.883 143.646 383.609 142.158 378.069C142.158 378.069 145.938 363.252 161.68 345.338C162.222 344.723 162.779 344.1 163.35 343.477C169.551 336.702 177.461 329.546 187.513 322.632C189.882 320.998 192.375 319.382 194.99 317.784C195.092 317.719 195.196 317.659 195.3 317.598C205.859 311.178 215.888 306.795 225.163 303.877C225.46 303.782 225.753 303.692 226.047 303.603C261.918 292.637 286.347 303.596 286.347 303.596Z" fill="white"/>
<path d="M270.207 355.624C261.435 335.247 248.452 316.947 232.115 301.931C264.908 293.645 286.825 303.479 286.825 303.479C286.825 303.479 288.863 327.41 270.207 355.624Z" fill="#EC1C24"/>
<path d="M286.773 306.208C286.813 304.165 286.718 303.041 286.718 303.041C286.718 303.041 264.801 293.208 232.008 301.495C233.062 302.464 234.102 303.447 235.129 304.444C263.066 297.988 282.666 304.612 286.773 306.208Z" fill="white"/>
<path d="M269.889 359.193L268.643 356.297C259.908 336.007 247.23 318.137 230.962 303.185L228.641 301.052L231.697 300.28C257.69 293.706 277.071 298.386 284.2 300.7C286.884 301.572 288.644 304.053 288.579 306.875C288.407 314.366 286.411 334.205 271.628 356.564L269.889 359.193ZM235.591 302.855C250.335 316.948 262.055 333.469 270.484 352.038C283.237 331.521 285.016 313.698 285.174 306.796C285.204 305.491 284.39 304.343 283.148 303.94C276.582 301.809 259.168 297.598 235.591 302.855Z" fill="#371A45"/>
<path d="M191.096 414.058C177.59 417.375 169.102 416.688 168.744 416.656L168.3 416.618L167.932 416.367C161.347 411.871 155.669 406.295 151.057 399.794C146.444 393.292 143.058 386.092 140.993 378.395L140.877 377.964L140.988 377.532C141.077 377.183 143.266 368.823 150.997 357.036C158.085 346.228 171.4 330.373 194.584 316.214C206.739 308.79 219.226 303.43 231.698 300.28L232.59 300.055L233.267 300.677C249.851 315.92 262.784 334.13 271.708 354.804L272.256 355.614L271.631 356.567C264.537 367.299 255.352 377.313 244.33 386.333C223.306 403.536 203.941 410.865 191.398 413.984C191.298 414.008 191.196 414.033 191.096 414.058ZM169.466 413.288C171.344 413.375 179.248 413.529 190.753 410.634C202.917 407.587 221.711 400.44 242.172 383.696C252.666 375.11 261.445 365.612 268.278 355.456C259.679 335.794 247.359 318.427 231.64 303.812C219.796 306.905 207.931 312.053 196.359 319.121C155.734 343.932 145.565 374.104 144.406 377.964C146.376 385.1 149.547 391.779 153.835 397.823C158.122 403.866 163.38 409.067 169.466 413.288Z" fill="#371A45"/>
<path d="M161.15 419.896C157.903 420.694 154.438 419.944 151.791 417.795C143.826 411.331 137.782 402.812 134.313 393.159C132.97 389.421 133.784 385.263 136.439 382.308L141.373 376.815C142.002 376.116 143.078 376.058 143.778 376.686C144.477 377.315 144.535 378.392 143.907 379.092L138.973 384.584C137.157 386.606 136.6 389.45 137.519 392.007C140.777 401.076 146.455 409.078 153.937 415.15C156.048 416.863 158.916 417.276 161.424 416.23L168.239 413.388C169.108 413.03 170.104 413.437 170.466 414.305C170.828 415.173 170.418 416.17 169.55 416.532L162.736 419.374C162.216 419.591 161.686 419.765 161.15 419.896Z" fill="#371A45"/>
<path d="M240.461 368.163C229.908 375.649 215.285 373.164 207.798 362.611C200.311 352.059 202.797 337.435 213.35 329.949C223.902 322.462 238.526 324.948 246.012 335.5C253.499 346.053 251.013 360.676 240.461 368.163Z" fill="#371A45"/>
<path d="M238.907 363.303C229.418 370.035 216.268 367.8 209.536 358.31C202.803 348.821 205.038 335.671 214.528 328.939C224.017 322.206 237.167 324.441 243.9 333.931C250.632 343.42 248.397 356.57 238.907 363.303Z" fill="#EC1C24"/>
<path d="M246.036 337.902C245.787 337.492 245.524 337.092 245.244 336.696C238.514 327.207 225.362 324.974 215.873 331.704C207.507 337.638 204.779 348.559 208.863 357.564C203.105 348.191 205.535 335.831 214.633 329.375C224.125 322.643 237.273 324.878 244.008 334.368C244.81 335.5 245.485 336.685 246.036 337.902Z" fill="white"/>
<path d="M238.905 363.302C229.418 370.032 216.268 367.802 209.535 358.312C207.419 355.327 206.19 351.98 205.794 348.584C206.39 350.022 207.152 351.415 208.092 352.741C214.824 362.231 227.974 364.467 237.465 357.735C243.97 353.118 247.064 345.481 246.193 338.083C249.868 346.957 247.073 357.506 238.905 363.302Z" fill="#371A45"/>
<path d="M232.146 368.247C229.159 368.981 226.026 369.1 222.902 368.569C216.906 367.55 211.666 364.257 208.146 359.296C204.627 354.335 203.25 348.301 204.27 342.305C205.289 336.309 208.582 331.069 213.542 327.549C218.503 324.031 224.537 322.653 230.533 323.672C236.529 324.692 241.769 327.985 245.289 332.945C248.808 337.906 250.185 343.94 249.166 349.936C248.146 355.932 244.853 361.172 239.893 364.692C237.516 366.378 234.893 367.572 232.146 368.247ZM222.101 327.304C219.765 327.878 217.535 328.894 215.513 330.328C211.295 333.32 208.494 337.777 207.628 342.876C206.761 347.975 207.932 353.107 210.925 357.325C213.917 361.544 218.374 364.344 223.473 365.211C228.573 366.078 233.704 364.906 237.922 361.914C242.14 358.921 244.941 354.465 245.808 349.365C246.674 344.266 245.503 339.135 242.511 334.916C239.518 330.698 235.061 327.897 229.962 327.03C227.306 326.579 224.641 326.68 222.101 327.304Z" fill="#371A45"/>
<path d="M234.532 356.702C228.495 360.985 220.129 359.563 215.846 353.526C211.563 347.489 212.985 339.123 219.022 334.84C225.059 330.557 233.425 331.979 237.708 338.016C241.991 344.053 240.569 352.419 234.532 356.702Z" fill="#6BD6F0"/>
<path d="M234.532 356.704C228.494 360.987 220.13 359.563 215.847 353.526C214.918 352.22 214.257 350.801 213.857 349.339C213.938 349.463 214.022 349.585 214.11 349.711C218.393 355.748 226.758 357.172 232.795 352.889C237.527 349.534 239.423 343.673 237.963 338.39C241.932 344.393 240.444 352.508 234.532 356.704Z" fill="white"/>
<path d="M240.099 343.212C239.973 343.02 239.847 342.827 239.712 342.637C235.428 336.6 227.064 335.176 221.026 339.459C216.481 342.681 214.55 348.221 215.704 353.334C211.902 347.349 213.422 339.371 219.27 335.223C225.304 330.943 233.669 332.36 237.952 338.398C239.01 339.893 239.725 341.53 240.099 343.212Z" fill="#371A45"/>
<path d="M230.378 360.45C228.397 360.936 226.318 361.015 224.246 360.663C220.268 359.987 216.792 357.802 214.457 354.511C209.637 347.718 211.243 338.271 218.037 333.451C224.829 328.631 234.278 330.237 239.097 337.031C243.916 343.824 242.311 353.272 235.517 358.091C233.941 359.209 232.2 360.002 230.378 360.45ZM223.973 334.412C222.586 334.753 221.241 335.354 220.007 336.23C214.746 339.962 213.502 347.279 217.235 352.541C219.043 355.089 221.736 356.782 224.817 357.305C227.898 357.829 230.998 357.121 233.546 355.313C238.808 351.58 240.051 344.263 236.319 339.001C233.461 334.974 228.502 333.3 223.973 334.412Z" fill="#371A45"/>
<path d="M262.401 307.434C261.539 304.35 254.486 303.501 250.84 304.426C247.065 305.385 244.948 306.596 245.382 308.431C245.987 310.993 249.155 311.171 252.69 310.444C255.189 309.93 263.465 311.239 262.401 307.434Z" fill="white"/>
<path d="M272.846 309.031C271.982 306.387 268.109 304.678 266.287 304.91C264.4 305.15 263.431 305.835 263.903 307.397C264.562 309.578 266.274 310.179 268.064 310.093C269.329 310.033 273.913 312.293 272.846 309.031Z" fill="white"/>
<g opacity="0.2">
<path d="M167.268 412.117C167.268 412.117 201.401 415.086 241.629 382.17C282.483 348.739 285.26 312.135 285.266 302.867C285.521 302.96 285.745 303.044 285.938 303.118C285.153 302.816 283.858 302.352 282.089 301.833C279.313 317.653 269.999 344.298 239.587 369.184C220.591 384.727 202.956 392.269 189.632 395.9C172.614 400.538 154.518 393.33 145.633 378.092C145.585 378.008 145.536 377.924 145.487 377.84C145.138 377.234 144.8 376.62 144.47 376.003C144.316 375.752 144.158 375.505 144.009 375.249C143.96 375.165 143.911 375.081 143.863 374.997C143.811 374.907 143.762 374.814 143.71 374.724C143.723 374.689 143.736 374.656 143.749 374.62C142.947 376.75 142.64 377.953 142.64 377.953C143.953 382.845 145.822 387.53 148.187 391.93C152.993 399.89 159.474 406.798 167.268 412.117Z" fill="#371A45"/>
</g>
<path d="M162.276 401.436C153.805 407.442 140.709 406.654 140.709 406.654C140.709 406.654 140.722 406.606 140.75 406.52C141.162 405.146 144.806 393.668 152.756 388.022C160.387 382.606 170.435 383.774 172.239 384.039C172.424 384.067 172.522 384.085 172.522 384.085C172.522 384.085 170.691 395.472 162.276 401.436Z" fill="#EC1C24"/>
<path d="M173.067 384.413C173.067 384.413 172.955 385.107 172.662 386.237C169.259 385.922 160.984 385.746 154.467 390.372C148.073 394.911 144.465 403.223 143.08 407.016C141.932 407.025 141.251 406.985 141.251 406.985C141.251 406.985 141.267 406.936 141.293 406.849C141.707 405.476 145.351 393.998 153.302 388.352C160.932 382.935 170.978 384.104 172.782 384.369C172.97 384.397 173.067 384.413 173.067 384.413Z" fill="white"/>
<path d="M162.276 401.436C153.805 407.442 140.709 406.654 140.709 406.654C140.709 406.654 140.722 406.606 140.75 406.52L172.239 384.04C172.424 384.068 172.522 384.085 172.522 384.085C172.522 384.085 170.691 395.472 162.276 401.436Z" fill="#371A45"/>
<path d="M153.425 407.096C146.896 408.699 140.976 408.377 140.606 408.355L138.491 408.228L139.07 406.19C139.223 405.651 142.918 392.919 151.773 386.634C160.665 380.321 172.329 382.321 172.821 382.409L174.468 382.704L174.203 384.355C174.123 384.849 172.157 396.519 163.261 402.827C160.263 404.952 156.764 406.276 153.425 407.096ZM143.076 404.973C147.06 404.891 155.448 404.19 161.29 400.048C167.136 395.904 169.588 388.826 170.446 385.56C167.076 385.296 159.567 385.277 153.744 389.411C147.891 393.566 144.466 401.242 143.076 404.973Z" fill="#371A45"/>
<path d="M200.599 356.246C202.361 357.795 215.086 370.765 209.327 378.576C204.286 385.417 192.375 387.421 184.17 380.628C178.748 376.133 176.365 370.002 175.407 365.099C174.289 359.371 173.976 353.722 170.111 350.177C168.05 348.281 165.074 346.877 161.68 345.338C162.222 344.723 162.779 344.099 163.349 343.477C169.551 336.701 177.461 329.546 187.513 322.632C189.932 323.143 192.332 323.974 194.495 325.267C203.032 330.391 206.579 344.014 203.28 350.699C201.98 353.334 200.599 356.246 200.599 356.246Z" fill="#371A45"/>
<path d="M203.719 351.096C205.48 352.645 218.206 365.615 212.447 373.426C207.406 380.267 195.495 382.271 187.29 375.478C181.867 370.983 179.485 364.851 178.526 359.949C177.409 354.221 177.096 348.572 173.231 345.027C168.832 340.987 155.852 342.263 147.861 336.644C143.151 333.338 139.306 326.176 137.341 316.728C136.745 313.858 136.321 310.775 136.102 307.523C135.166 293.714 137.901 276.895 146.515 260.483C146.515 260.483 155.908 278.273 165.01 293.895C171.354 304.784 177.557 314.621 180.326 316.628C180.694 316.897 181.002 317.024 181.241 317C184.162 316.699 187.126 316.808 190.047 317.363C192.659 317.861 195.276 318.718 197.615 320.116C206.151 325.241 209.699 338.864 206.399 345.549C205.099 348.184 203.719 351.096 203.719 351.096Z" fill="white"/>
<g opacity="0.1">
<path d="M213.909 369.397C213.809 370.829 213.362 372.188 212.447 373.426C207.406 380.267 195.495 382.271 187.29 375.478C181.869 370.987 179.485 364.851 178.526 359.948C177.409 354.221 177.092 348.573 173.232 345.031C168.833 340.99 155.852 342.262 147.858 336.65C143.153 333.342 139.305 326.171 137.341 316.728C137.33 316.687 137.323 316.64 137.313 316.599C137.249 316.281 137.188 315.963 137.126 315.641C137.072 315.347 137.016 315.049 136.964 314.747C136.939 314.612 136.914 314.474 136.893 314.334C136.775 313.622 136.664 312.9 136.567 312.165C136.521 311.817 136.478 311.464 136.434 311.106C136.404 310.859 136.377 310.607 136.35 310.355C136.325 310.147 136.304 309.937 136.284 309.727C136.251 309.397 136.222 309.067 136.193 308.732C136.161 308.354 136.133 307.971 136.105 307.588C136.104 307.566 136.103 307.544 136.102 307.522C136.368 307.019 136.572 306.723 136.572 306.723C136.572 306.723 137.96 306.983 140.796 307.018C145.305 307.077 153.473 306.58 165.547 303.597L163.819 297.38C163.449 296.054 163.958 294.68 165.01 293.895C165.258 293.707 165.54 293.554 165.851 293.443L173.159 290.798L190.46 314.403L180.326 316.628L172.705 318.302C171.051 318.599 169.439 317.587 168.988 315.966L168.12 312.843C161.857 315.955 150.982 319.038 143.308 318.441C145.443 324.853 148.565 329.689 152.189 332.236C160.18 337.854 168.587 331.721 176.725 337.544C181.811 341.188 181.737 349.813 182.854 355.54C183.813 360.443 183.685 368.011 189.102 372.503C196.269 378.442 207.754 374.938 213.909 369.397Z" fill="#371A45"/>
</g>
<path d="M204.368 245.275C201.675 251.859 198.736 258.483 193.311 263.156C190.709 265.395 187.832 267.356 184.713 268.972C181.497 270.643 178.029 271.946 174.347 272.824C167.801 274.384 161.251 274.43 155.061 273.187C148.888 271.947 142.878 276.052 141.724 282.241C140.065 291.148 139.886 299.608 140.796 307.018C137.959 306.983 136.571 306.723 136.571 306.723C136.571 306.723 136.368 307.019 136.101 307.522C135.165 293.714 137.901 276.895 146.514 260.482L146.95 261.721C148.003 259.17 148.715 257.715 148.715 257.715L188.741 250.025C188.741 250.025 189.405 252.071 190.573 255.45C195.158 252.947 199.366 248.958 204.368 245.275Z" fill="#371A45"/>
<path d="M181.927 316.367C184.066 315.812 186.31 315.63 188.546 315.75C190.78 315.874 193.024 316.266 195.193 317.051C196.275 317.444 197.338 317.92 198.362 318.493C199.394 319.081 200.365 319.784 201.256 320.554C203.037 322.108 204.468 323.973 205.629 325.954C206.77 327.949 207.656 330.066 208.27 332.258C208.901 334.446 209.28 336.711 209.317 339.026C209.346 341.332 209.091 343.729 208.047 346.035L205.256 351.826L204.841 349.816C205.294 350.222 205.656 350.587 206.036 350.973C206.407 351.356 206.773 351.74 207.128 352.133C207.84 352.916 208.526 353.719 209.189 354.545C210.515 356.194 211.741 357.939 212.818 359.81C213.878 361.688 214.812 363.698 215.309 365.948C215.552 367.069 215.698 368.251 215.607 369.472C215.525 370.687 215.212 371.932 214.648 373.057L214.437 373.478C214.361 373.615 214.271 373.743 214.188 373.875C214.016 374.129 213.852 374.422 213.663 374.626C213.29 375.065 212.937 375.526 212.54 375.939C212.123 376.331 211.714 376.735 211.285 377.112L209.923 378.14C208.038 379.405 205.937 380.283 203.766 380.801C201.594 381.319 199.346 381.477 197.124 381.283C194.898 381.105 192.715 380.48 190.681 379.564C190.171 379.333 189.657 379.112 189.185 378.809C188.708 378.519 188.209 378.26 187.752 377.938L186.407 376.94C185.963 376.603 185.573 376.224 185.154 375.866C183.55 374.368 182.148 372.66 180.97 370.823C179.813 368.974 178.852 367.01 178.14 364.969C177.772 363.952 177.471 362.915 177.212 361.87C177.078 361.348 176.97 360.821 176.86 360.294L176.575 358.757C176.211 356.719 175.907 354.723 175.448 352.839C174.985 350.966 174.372 349.192 173.367 347.777C173.247 347.595 173.123 347.418 172.98 347.258C172.839 347.097 172.717 346.917 172.562 346.769L172.111 346.313C171.959 346.187 171.841 346.072 171.676 345.961C171.052 345.515 170.247 345.143 169.375 344.842C167.617 344.242 165.646 343.861 163.658 343.486C159.672 342.74 155.498 342.07 151.448 340.464C149.431 339.647 147.452 338.609 145.696 337.116C143.965 335.645 142.584 333.902 141.415 332.078C140.248 330.248 139.292 328.324 138.467 326.361C137.672 324.387 137.005 322.376 136.453 320.34C135.372 316.264 134.738 312.103 134.425 307.932C133.849 299.584 134.592 291.196 136.409 283.069C137.355 279.017 138.344 274.954 139.839 271.058C141.356 267.182 143.228 263.41 146.012 260.218C146.224 259.975 146.593 259.95 146.836 260.162C147.006 260.31 147.069 260.535 147.019 260.74L147.018 260.746C146.02 264.805 144.562 268.52 143.25 272.316C141.916 276.092 140.577 279.886 139.733 283.814C137.982 291.64 137.272 299.714 137.822 307.689C138.122 311.67 138.727 315.628 139.743 319.458C140.262 321.369 140.885 323.243 141.617 325.064C142.376 326.869 143.248 328.617 144.28 330.236C145.311 331.85 146.51 333.342 147.902 334.521C149.266 335.687 150.948 336.591 152.714 337.302C156.287 338.726 160.246 339.391 164.284 340.138C166.309 340.524 168.372 340.905 170.489 341.623C171.545 341.993 172.629 342.459 173.673 343.201C173.93 343.378 174.191 343.61 174.427 343.815L175.055 344.448C175.267 344.657 175.441 344.898 175.634 345.123C175.83 345.347 176 345.587 176.164 345.831C176.839 346.795 177.371 347.834 177.776 348.881C178.185 349.928 178.51 350.986 178.757 352.03C179.264 354.122 179.572 356.174 179.929 358.16L180.202 359.639C180.302 360.112 180.399 360.587 180.519 361.055C180.752 361.994 181.021 362.923 181.35 363.829C181.984 365.65 182.835 367.38 183.844 368.997C185.903 372.184 188.708 374.98 192.09 376.463C193.774 377.22 195.582 377.747 197.438 377.891C199.289 378.051 201.167 377.918 202.97 377.489C204.772 377.06 206.501 376.333 208.016 375.318L209.101 374.498C209.437 374.199 209.754 373.881 210.086 373.577C210.396 373.255 210.66 372.896 210.955 372.561C211.117 372.39 211.189 372.223 211.308 372.057C211.36 371.973 211.422 371.893 211.469 371.807L211.598 371.542C212.308 370.144 212.384 368.428 211.981 366.677C211.6 364.925 210.809 363.173 209.859 361.499C208.896 359.826 207.768 358.212 206.532 356.676C205.915 355.907 205.272 355.156 204.609 354.426C204.278 354.06 203.94 353.704 203.6 353.353C203.263 353.01 202.901 352.652 202.593 352.375L201.627 351.509L202.178 350.366L204.955 344.607C205.685 343.007 205.953 341.047 205.902 339.098C205.789 335.171 204.529 331.184 202.494 327.806C201.467 326.122 200.253 324.565 198.829 323.283C198.121 322.635 197.362 322.072 196.558 321.566C195.739 321.055 194.866 320.612 193.956 320.232C192.139 319.466 190.191 318.878 188.192 318.438C186.19 318 184.138 317.717 182.017 317.499L182.013 317.499C181.696 317.466 181.466 317.183 181.498 316.866C181.523 316.621 181.701 316.426 181.927 316.367Z" fill="#371A45"/>
<path d="M176.313 350.29C175.701 350.44 175.058 350.119 174.821 349.517C169.386 335.717 176.182 326.893 179.356 323.74C184.618 318.512 191.972 316.339 197.241 318.455C197.895 318.717 198.213 319.461 197.95 320.116C197.688 320.77 196.944 321.088 196.289 320.825C192.008 319.106 185.644 321.094 181.156 325.552C178.341 328.349 172.319 336.192 177.198 348.581C177.456 349.237 177.134 349.979 176.477 350.237C176.423 350.259 176.368 350.276 176.313 350.29Z" fill="#371A45"/>
<path d="M205.944 350.329C205.81 350.539 205.716 350.667 205.601 350.825C205.492 350.978 205.376 351.119 205.261 351.262C205.033 351.549 204.788 351.816 204.539 352.08C204.043 352.61 203.494 353.087 202.928 353.545C201.783 354.44 200.498 355.192 199.105 355.705C197.716 356.211 196.215 356.516 194.738 356.379C193.267 356.258 191.855 355.751 190.742 354.885C192.156 354.789 193.412 354.673 194.583 354.323C195.169 354.173 195.728 353.972 196.272 353.748C196.817 353.53 197.347 353.279 197.85 352.972C198.863 352.381 199.81 351.665 200.694 350.864C201.145 350.474 201.566 350.047 201.991 349.625L202.605 348.976L203.164 348.36L203.249 348.267C203.881 347.571 204.958 347.519 205.654 348.151C206.279 348.718 206.384 349.643 205.944 350.329Z" fill="#371A45"/>
<path d="M185.675 232.078C185.535 234.096 186.826 235.829 188.558 235.949C190.29 236.069 191.807 234.53 191.946 232.512C192.086 230.495 190.795 228.762 189.064 228.642C187.332 228.522 185.815 230.06 185.675 232.078Z" fill="white"/>
<path d="M206.078 281.391L209.508 290.243L212.178 297.129C212.902 299 212.063 301.111 210.245 301.969C209.076 302.523 207.621 303.192 205.936 303.928C199.942 306.545 191.031 310.014 181.739 312.145C179.742 312.602 177.741 311.396 177.2 309.418L172.086 290.656C171.511 288.543 172.82 286.379 174.959 285.911C181.43 284.498 194.295 281.563 201.272 279.153C203.214 278.482 205.337 279.474 206.078 281.391Z" fill="white"/>
<path d="M174.676 285.986L167.367 288.629C165.765 289.209 164.88 290.925 165.336 292.567L170.507 311.156C170.958 312.777 172.569 313.788 174.225 313.489L181.266 312.221" fill="white"/>
<path d="M174.676 285.986L167.367 288.629C165.765 289.209 164.88 290.925 165.337 292.567L170.508 311.156C170.958 312.777 172.569 313.788 174.225 313.489L181.266 312.221" fill="#371A45"/>
<path d="M183.625 313.244C183.109 313.371 182.593 313.493 182.074 313.612C179.283 314.252 176.505 312.584 175.75 309.814L170.636 291.051C170.248 289.628 170.455 288.149 171.22 286.887C171.984 285.626 173.199 284.762 174.638 284.443C181.474 282.947 193.96 280.088 200.781 277.731C203.494 276.794 206.439 278.162 207.48 280.847L213.579 296.584C214.584 299.177 213.403 302.14 210.889 303.328C205.494 305.88 194.971 310.458 183.625 313.244ZM175.221 287.394C174.62 287.541 174.114 287.913 173.792 288.445C173.458 288.995 173.368 289.64 173.537 290.26L178.651 309.023C178.981 310.231 180.189 310.959 181.402 310.681C193.05 308.005 204.073 303.225 209.604 300.61C210.699 300.093 211.214 298.801 210.775 297.671L204.676 281.933C204.223 280.763 202.947 280.166 201.762 280.573C194.795 282.98 182.181 285.871 175.281 287.38C175.261 287.384 175.241 287.389 175.221 287.394Z" fill="#371A45"/>
<path d="M181.626 313.68C181.595 313.688 181.564 313.694 181.532 313.7L174.491 314.969C172.057 315.408 169.722 313.942 169.059 311.559L163.888 292.97C163.224 290.585 164.528 288.058 166.856 287.216L174.165 284.572C174.948 284.285 175.807 284.694 176.09 285.474C176.372 286.255 175.968 287.117 175.187 287.399L167.878 290.043C167.021 290.354 166.54 291.285 166.785 292.164L171.956 310.753C172.2 311.631 173.061 312.171 173.958 312.01L180.999 310.741C181.816 310.594 182.598 311.137 182.745 311.954C182.887 312.74 182.39 313.493 181.626 313.68Z" fill="#371A45"/>
<path d="M197.297 309.152C196.529 309.341 195.738 308.9 195.503 308.135L192.595 298.706L186.949 296.628C186.514 296.468 186.178 296.117 186.036 295.675L182.415 284.349C182.162 283.558 182.598 282.712 183.389 282.459C184.178 282.207 185.026 282.642 185.279 283.433L188.677 294.06L194.332 296.141C194.772 296.303 195.111 296.661 195.249 297.109L198.376 307.249C198.621 308.042 198.176 308.884 197.382 309.129C197.354 309.137 197.325 309.145 197.297 309.152Z" fill="#371A45"/>
<path d="M207.131 290.391C207.334 290.956 208.175 295.798 208.175 295.798C208.175 295.798 206.731 296.316 204.958 296.952C202.744 297.746 200.126 296.097 199.111 293.269C198.096 290.44 199.069 287.503 201.284 286.708C202.778 286.172 204.5 285.555 204.5 285.555C204.5 285.555 206.801 289.472 207.131 290.391Z" fill="#22A7F0"/>
<path d="M207.13 290.392C207.334 290.955 208.177 295.798 208.177 295.798C208.177 295.798 208.14 295.811 208.07 295.835C207.818 294.439 207.503 292.787 207.39 292.472C207.062 291.551 204.761 287.635 204.761 287.635C204.761 287.635 203.038 288.253 201.544 288.789C199.996 289.342 199.054 290.947 198.971 292.828C198.198 290.141 199.183 287.461 201.285 286.709C202.778 286.173 204.501 285.555 204.501 285.555C204.501 285.555 206.802 289.471 207.13 290.392Z" fill="white"/>
<path d="M204.932 298.292C202.168 298.971 199.094 297.003 197.909 293.7C196.658 290.212 197.978 286.537 200.852 285.506L203.098 284.7C204.246 284.287 205.518 284.756 206.126 285.811C208.031 289.117 208.259 289.751 208.333 289.96C208.393 290.127 208.534 290.519 209.251 294.546C209.467 295.756 208.783 296.937 207.624 297.352L205.39 298.154C205.239 298.208 205.086 298.254 204.932 298.292ZM203.93 287.116L201.715 287.91C200.193 288.457 199.551 290.713 200.313 292.837C201.075 294.962 203.006 296.289 204.527 295.749L206.73 294.959C206.251 292.274 205.998 291.051 205.925 290.814C205.81 290.5 205.226 289.367 203.93 287.116Z" fill="#371A45"/>
<path d="M210.348 289.237C211.362 292.066 210.389 295.003 208.175 295.798C205.96 296.592 203.342 294.943 202.328 292.115C201.313 289.286 202.285 286.349 204.5 285.554C206.715 284.76 209.333 286.409 210.348 289.237Z" fill="#22A7F0"/>
<path d="M210.347 289.238C210.468 289.58 210.563 289.923 210.627 290.265C209.418 288.051 207.168 286.866 205.222 287.563C203.275 288.264 202.288 290.616 202.769 293.097C202.6 292.788 202.45 292.459 202.326 292.113C201.311 289.285 202.286 286.347 204.501 285.555C206.714 284.759 209.332 286.41 210.347 289.238Z" fill="white"/>
<path d="M208.135 297.142C206.817 297.466 205.41 297.207 204.12 296.396C202.776 295.548 201.712 294.181 201.125 292.546C200.538 290.911 200.49 289.179 200.99 287.67C201.526 286.05 202.62 284.872 204.069 284.352C205.517 283.831 207.11 284.047 208.555 284.956C209.899 285.803 210.963 287.171 211.55 288.806C212.136 290.442 212.185 292.173 211.685 293.682C211.148 295.302 210.055 296.48 208.606 297C208.451 297.056 208.293 297.103 208.135 297.142ZM205.138 286.694C205.068 286.711 204.999 286.732 204.931 286.756C204.238 287.005 203.699 287.615 203.415 288.473C203.094 289.442 203.135 290.582 203.53 291.683C203.924 292.784 204.618 293.69 205.482 294.234C206.247 294.716 207.052 294.846 207.743 294.595C208.437 294.347 208.975 293.737 209.26 292.879C209.581 291.909 209.54 290.769 209.145 289.669C208.75 288.569 208.057 287.662 207.193 287.118C206.503 286.683 205.782 286.536 205.138 286.694Z" fill="#371A45"/>
<path d="M135.556 302.588C135.556 302.588 146.527 304.632 169.813 298.059C169.813 298.059 175.127 301.125 171.662 305.588C168.196 310.05 144.463 317.957 136.281 312.566C131.1 309.152 135.556 302.588 135.556 302.588Z" fill="white"/>
<path d="M171.661 305.59C168.197 310.049 144.464 317.955 136.279 312.565C133.815 310.943 133.532 308.61 133.916 306.604C134.226 306.94 134.602 307.255 135.047 307.549C143.232 312.94 166.965 305.033 170.429 300.574C170.795 300.099 171.068 299.642 171.25 299.202C172.52 300.482 173.862 302.752 171.661 305.59Z" fill="#371A45"/>
<path d="M155.73 314.324C150.247 315.67 140.691 317.272 135.453 313.821C133.792 312.726 132.767 311.255 132.409 309.449C131.664 305.7 134.203 301.904 134.312 301.744L134.864 300.93L135.828 301.11C135.993 301.139 146.902 302.966 169.404 296.612L170.014 296.44L170.564 296.757C170.879 296.939 173.665 298.621 174.238 301.546C174.465 302.703 174.408 304.503 172.849 306.51C170.524 309.503 162.541 312.61 156.107 314.23C155.984 314.261 155.858 314.292 155.73 314.324ZM136.352 304.21C135.81 305.25 135.014 307.155 135.36 308.873C135.561 309.87 136.132 310.668 137.108 311.31C144.603 316.249 167.549 308.432 170.474 304.666C171.179 303.758 171.445 302.927 171.288 302.125C171.084 301.085 170.181 300.188 169.545 299.695C150.399 305.021 139.631 304.556 136.352 304.21Z" fill="#371A45"/>
<path d="M228.61 316.503C226.123 321.643 215.798 328.55 208.755 326.224C202.873 324.284 201.589 319.75 197.329 318.008C197.081 317.906 196.376 317.786 195.3 317.599C205.859 311.178 215.887 306.795 225.163 303.877C230.451 307.879 230.668 312.245 228.61 316.503Z" fill="#371A45"/>
<path d="M166.068 274.554C182.774 287.368 206.273 291.968 221.67 300.245C230.109 304.781 229.758 308.048 227.336 313.062C224.853 318.203 217.567 324.363 210.525 322.037C204.642 320.094 203.579 317.138 199.32 315.393C197.64 314.705 173.219 314.251 155.62 297.54" fill="white"/>
<path d="M227.335 313.063C224.853 318.202 217.567 324.362 210.524 322.036C204.642 320.096 203.578 317.139 199.318 315.393C197.64 314.704 173.219 314.252 155.619 297.539L155.798 297.144C173.658 308.581 188.674 305.84 200.359 310.99C204.57 312.846 205.099 313.675 210.982 315.615C218.024 317.941 225.311 311.78 227.793 306.642C227.953 306.313 228.102 305.991 228.24 305.677C229.415 307.945 228.707 310.223 227.335 313.063Z" fill="#371A45"/>
<path d="M166.413 274.103C169.599 275.353 172.374 276.981 175.282 278.479C178.153 280.015 181.076 281.482 184.019 282.933C186.995 284.328 190.032 285.598 193.118 286.788C196.192 287.997 199.307 289.142 202.421 290.303C205.54 291.472 208.669 292.617 211.781 293.879C212.561 294.182 213.338 294.503 214.112 294.835C214.886 295.166 215.664 295.484 216.435 295.825C217.971 296.534 219.517 297.21 221.025 298.007C222.54 298.753 224.063 299.598 225.541 300.59C225.906 300.855 226.274 301.11 226.636 301.386C226.992 301.687 227.352 301.971 227.699 302.293L228.209 302.805L228.462 303.063C228.544 303.156 228.621 303.258 228.7 303.355L229.169 303.948C229.316 304.159 229.447 304.394 229.584 304.617C230.103 305.528 230.493 306.636 230.518 307.734C230.563 308.822 230.383 309.859 230.101 310.769C229.816 311.678 229.471 312.525 229.099 313.311C228.927 313.701 228.708 314.115 228.483 314.528C228.273 314.949 228.009 315.32 227.767 315.712C226.754 317.238 225.55 318.591 224.197 319.789C222.843 320.982 221.333 322.019 219.662 322.81C217.995 323.598 216.148 324.134 214.218 324.219L213.493 324.228C213.252 324.235 213.01 324.234 212.769 324.197C212.288 324.132 211.798 324.11 211.325 323.999C210.857 323.879 210.374 323.763 209.921 323.63C209.499 323.474 209.075 323.338 208.657 323.165C207.821 322.827 206.994 322.442 206.201 321.988C205.412 321.535 204.647 321.032 203.943 320.501C202.526 319.438 201.344 318.378 200.088 317.668C199.933 317.569 199.769 317.494 199.61 317.408C199.45 317.322 199.29 317.239 199.122 317.17L198.874 317.059L198.75 317.003L198.688 316.975C198.659 316.961 198.688 316.98 198.686 316.979C198.696 316.986 198.708 316.99 198.72 316.991L198.624 316.973C198.546 316.959 198.487 316.944 198.384 316.931C197.637 316.818 196.786 316.719 195.962 316.612C194.297 316.398 192.623 316.155 190.956 315.864C184.291 314.707 177.702 312.846 171.486 310.04C169.927 309.35 168.406 308.576 166.9 307.773C165.409 306.941 163.889 306.151 162.443 305.228C161.713 304.78 161.007 304.291 160.332 303.761C159.989 303.504 159.649 303.243 159.33 302.953C159.005 302.673 158.682 302.39 158.369 302.096C157.737 301.516 157.173 300.854 156.629 300.184C156.105 299.489 155.622 298.757 155.229 297.952C155.082 297.651 155.207 297.289 155.507 297.142C155.66 297.067 155.83 297.063 155.978 297.117L156.011 297.128C156.852 297.436 157.58 297.844 158.311 298.24C159.052 298.623 159.727 299.074 160.419 299.498C160.764 299.713 161.099 299.938 161.431 300.166C161.763 300.395 162.108 300.605 162.441 300.832C162.778 301.053 163.11 301.279 163.437 301.514C163.772 301.737 164.108 301.959 164.439 302.189C165.757 303.115 167.117 303.992 168.531 304.779C169.956 305.545 171.401 306.276 172.883 306.933C178.795 309.603 185.109 311.392 191.538 312.508C193.148 312.788 194.764 313.023 196.397 313.234C197.222 313.342 198.022 313.432 198.919 313.567C199.022 313.58 199.167 313.609 199.294 313.633C199.365 313.647 199.41 313.653 199.503 313.676C199.615 313.704 199.727 313.737 199.837 313.773C199.884 313.789 199.965 313.815 199.983 313.825L200.063 313.86L200.224 313.932L200.545 314.075C200.973 314.263 201.389 314.49 201.794 314.72C203.434 315.662 204.735 316.849 205.981 317.772C207.222 318.708 208.504 319.437 209.922 320.002C210.272 320.149 210.641 320.265 210.999 320.398L212.006 320.661C212.341 320.744 212.69 320.747 213.03 320.801C213.201 320.832 213.375 320.83 213.549 320.823L214.071 320.816C215.466 320.755 216.876 320.36 218.209 319.729C220.871 318.46 223.263 316.32 224.925 313.834C225.118 313.518 225.342 313.212 225.499 312.886C225.671 312.568 225.845 312.25 226.008 311.879C226.349 311.163 226.625 310.464 226.84 309.787C227.051 309.111 227.134 308.483 227.116 307.911C227.11 307.338 226.915 306.831 226.625 306.305C226.022 305.257 224.888 304.256 223.616 303.4C222.331 302.54 220.945 301.762 219.477 301.042C218.044 300.282 216.542 299.626 215.059 298.941C214.31 298.61 213.549 298.299 212.794 297.977C212.041 297.653 211.281 297.338 210.511 297.039C207.461 295.802 204.344 294.661 201.236 293.496C198.119 292.334 194.992 291.186 191.877 289.96C188.757 288.76 185.67 287.436 182.566 286.138C179.488 284.772 176.402 283.37 173.528 281.552C170.61 279.836 167.896 277.687 165.722 275.004C165.52 274.754 165.558 274.386 165.808 274.183C165.977 274.047 166.199 274.02 166.388 274.093L166.413 274.103Z" fill="#371A45"/>
<path d="M176.187 311.469C176.072 311.497 175.952 311.512 175.829 311.512C174.999 311.513 174.325 310.841 174.323 310.011C174.322 309.148 174.445 288.933 187.704 285.677C187.777 285.659 187.847 285.642 187.921 285.625C188.73 285.439 189.537 285.945 189.722 286.754C189.908 287.564 189.406 288.39 188.592 288.556C188.538 288.568 188.483 288.581 188.43 288.594C177.428 291.296 177.33 309.818 177.33 310.006C177.331 310.713 176.844 311.307 176.187 311.469Z" fill="#371A45"/>
<path d="M208.796 225.263C208.313 225.415 207.797 225.146 207.645 224.662L199.708 199.421C199.556 198.937 199.825 198.421 200.309 198.269C205.386 196.672 210.796 199.494 212.393 204.572L215.099 213.179C216.696 218.256 213.874 223.666 208.796 225.263Z" fill="white"/>
<path d="M208.783 225.456C208.224 225.593 207.645 225.273 207.47 224.717L199.533 199.475C199.351 198.896 199.675 198.277 200.254 198.094C205.422 196.473 210.943 199.351 212.567 204.516L215.273 213.124C216.06 215.626 215.825 218.285 214.612 220.611C213.399 222.936 211.353 224.65 208.851 225.437C208.828 225.444 208.805 225.451 208.783 225.456ZM200.957 198.277C200.758 198.326 200.56 198.381 200.363 198.443C200.176 198.502 200.022 198.63 199.931 198.805C199.841 198.979 199.823 199.178 199.882 199.366L207.819 224.607C207.94 224.994 208.357 225.215 208.742 225.089C211.151 224.331 213.121 222.681 214.288 220.441C215.457 218.202 215.683 215.642 214.925 213.233L212.218 204.626C211.461 202.217 209.81 200.247 207.571 199.079C205.515 198.007 203.189 197.729 200.957 198.277Z" fill="#371A45"/>
<path d="M213.83 209.143L215.1 213.179C216.696 218.255 213.874 223.666 208.796 225.265C208.313 225.418 207.797 225.146 207.644 224.662L205.532 217.953C205.764 218.216 206.137 218.331 206.493 218.222L207.091 218.032C211.103 216.771 213.709 213.126 213.83 209.143Z" fill="#371A45"/>
<path d="M209.145 226.933C207.815 227.26 206.437 226.498 206.02 225.173L198.083 199.932C197.65 198.552 198.419 197.077 199.798 196.644C202.684 195.734 205.758 196.006 208.444 197.407C211.129 198.808 213.109 201.171 214.017 204.061L216.724 212.668C217.632 215.558 217.361 218.628 215.961 221.314C214.56 224 212.197 225.979 209.307 226.888C209.307 226.888 209.307 226.888 209.307 226.888C209.253 226.905 209.199 226.92 209.145 226.933ZM201.579 199.694L209.022 223.366C212.727 221.787 214.708 217.611 213.475 213.69L210.768 205.082C210.132 203.061 208.747 201.407 206.868 200.428C205.223 199.569 203.372 199.317 201.579 199.694Z" fill="#371A45"/>
<path d="M116.992 224.466C117.476 224.314 117.992 224.583 118.144 225.067L126.081 250.309C126.233 250.793 125.964 251.308 125.48 251.461C120.403 253.057 114.993 250.235 113.396 245.158L110.69 236.551C109.093 231.474 111.915 226.063 116.992 224.466Z" fill="white"/>
<path d="M124.918 251.807C122.6 252.376 120.184 252.088 118.048 250.974C115.723 249.761 114.009 247.715 113.222 245.213L110.515 236.605C109.729 234.103 109.963 231.444 111.176 229.119C112.389 226.793 114.435 225.079 116.937 224.292C117.526 224.116 118.136 224.433 118.318 225.012L126.255 250.254C126.343 250.534 126.317 250.833 126.181 251.093C126.045 251.354 125.815 251.546 125.535 251.635C125.33 251.699 125.125 251.756 124.918 251.807ZM117.047 224.641C114.638 225.398 112.668 227.049 111.5 229.288C110.332 231.527 110.106 234.087 110.864 236.496L113.57 245.103C114.328 247.512 115.978 249.482 118.217 250.65C120.456 251.818 123.019 252.046 125.425 251.286C125.613 251.227 125.766 251.099 125.857 250.925C125.948 250.75 125.966 250.551 125.907 250.363L117.97 225.122C117.848 224.735 117.435 224.517 117.047 224.641Z" fill="#371A45"/>
<path d="M123.881 243.306L126.082 250.308C126.235 250.792 125.963 251.308 125.48 251.461C122.815 252.298 120.055 251.92 117.805 250.634C115.773 249.473 114.156 247.57 113.398 245.159L112.257 241.533C114.699 244.261 118.607 245.468 122.33 244.299L123.251 244.009C123.587 243.902 123.814 243.627 123.881 243.306Z" fill="#371A45"/>
<path d="M125.287 253.282C119.532 254.695 113.574 251.4 111.772 245.669L109.065 237.061C108.157 234.172 108.427 231.101 109.828 228.415C111.229 225.73 113.592 223.75 116.481 222.842L116.482 222.842C117.862 222.406 119.335 223.177 119.768 224.556L127.706 249.798C127.916 250.466 127.854 251.176 127.53 251.797C127.206 252.418 126.659 252.875 125.991 253.085C125.757 253.159 125.522 253.225 125.287 253.282ZM116.767 226.363C113.062 227.942 111.081 232.119 112.314 236.04L115.021 244.647C115.656 246.669 117.041 248.322 118.92 249.302C120.565 250.16 122.417 250.412 124.21 250.035L116.767 226.363Z" fill="#371A45"/>
<path d="M206.764 214.423C212.53 238.649 197.565 262.962 173.339 268.728C149.114 274.494 124.801 259.529 119.035 235.303C113.269 211.077 128.234 186.764 152.459 180.998C176.685 175.233 200.998 190.197 206.764 214.423Z" fill="white"/>
<path d="M173.702 268.828C173.594 268.854 173.49 268.879 173.382 268.905C149.097 274.685 124.637 259.63 118.857 235.345C113.103 211.169 128.002 186.815 152.097 180.898C152.205 180.872 152.309 180.847 152.417 180.821C164.181 178.021 176.331 179.97 186.63 186.308C196.928 192.647 204.142 202.616 206.941 214.381C212.696 238.557 197.797 262.911 173.702 268.828ZM152.181 181.254C140.651 184.085 130.885 191.202 124.656 201.324C118.368 211.539 116.435 223.592 119.212 235.261C121.99 246.93 129.145 256.819 139.36 263.107C149.576 269.394 161.628 271.327 173.297 268.55C184.955 265.772 194.856 258.617 201.143 248.402C207.431 238.187 209.364 226.134 206.586 214.465C203.809 202.796 196.654 192.907 186.438 186.619C176.223 180.332 164.171 178.399 152.502 181.176C152.395 181.202 152.287 181.228 152.181 181.254Z" fill="#371A45"/>
<g opacity="0.4">
<path d="M204.899 208.451C205.65 210.368 206.274 212.361 206.765 214.423C212.528 238.649 197.564 262.961 173.34 268.729C149.114 274.492 124.802 259.528 119.033 235.304C118.867 234.607 118.718 233.906 118.588 233.212C126.627 253.861 148.861 265.94 171.027 260.665C194.555 255.063 209.344 231.971 204.899 208.451Z" fill="#371A45"/>
</g>
<path d="M174.068 270.304C173.957 270.331 173.846 270.358 173.734 270.385C161.575 273.278 149.016 271.264 138.372 264.713C127.728 258.161 120.272 247.857 117.378 235.698C114.484 223.539 116.499 210.98 123.05 200.336C129.602 189.692 139.913 182.229 152.065 179.342C164.224 176.448 176.783 178.462 187.427 185.013C198.071 191.565 205.527 201.87 208.421 214.029C211.315 226.188 209.3 238.746 202.749 249.39C196.258 259.937 186.081 267.354 174.068 270.304ZM152.544 182.73C141.404 185.466 131.97 192.342 125.951 202.121C119.876 211.991 118.008 223.635 120.692 234.909C123.375 246.183 130.288 255.737 140.158 261.812C150.027 267.886 161.671 269.754 172.945 267.071C184.23 264.37 193.774 257.475 199.848 247.605C205.923 237.736 207.791 226.092 205.107 214.817C202.424 203.543 195.511 193.989 185.641 187.914C175.772 181.84 164.128 179.972 152.854 182.655C152.75 182.68 152.647 182.705 152.544 182.73Z" fill="#371A45"/>
<g opacity="0.6">
<path d="M206.892 215.583C209.065 224.135 208.305 232.779 205.227 240.554C202.918 246.383 190.476 258.719 172.45 263.471C155.735 267.878 138.224 262.818 133.413 258.797C126.997 253.434 122.204 246.2 120.032 237.648C114.283 215.017 131.343 200.697 155.33 194.603C179.317 188.51 201.143 192.952 206.892 215.583Z" fill="#371A45"/>
</g>
<path d="M171.881 264.665C154.881 268.84 137.711 263.714 132.761 259.577C125.944 253.879 121.202 246.383 119.047 237.898C116.241 226.851 118.505 217.208 125.779 209.239C132.136 202.274 142.268 196.873 155.08 193.618C167.895 190.36 179.373 190.275 188.283 193.362C198.478 196.894 205.071 204.286 207.877 215.333C210.032 223.817 209.442 232.668 206.171 240.929C203.904 246.654 191.761 259.432 172.708 264.454C172.433 264.527 172.156 264.597 171.881 264.665ZM156.226 195.427C156.006 195.481 155.791 195.535 155.58 195.588C142.818 198.83 113.903 209.394 121.016 237.398C123.066 245.465 127.578 252.595 134.065 258.017C138.602 261.809 155.292 266.645 171.413 262.687C171.673 262.623 171.931 262.558 172.19 262.489C190.316 257.711 202.213 245.404 204.281 240.181C207.394 232.32 207.956 223.901 205.907 215.833C198.911 188.292 169.342 192.206 156.226 195.427Z" fill="#371A45"/>
<path d="M186.228 216.496C186.534 220.892 189.365 224.276 192.55 224.054C195.736 223.833 198.07 220.089 197.764 215.693C197.458 211.296 194.627 207.912 191.442 208.134C188.256 208.356 185.922 212.1 186.228 216.496Z" fill="white"/>
<path d="M193.082 196.616C199.678 200.334 204.581 206.493 206.891 215.582C209.064 224.135 208.303 232.78 205.228 240.554C202.918 246.384 190.475 258.719 172.449 263.473C166.085 265.153 159.606 265.457 153.754 264.967C175.787 258.651 190.923 243.545 193.786 236.316C197.694 226.448 198.656 215.475 195.898 204.624C195.163 201.723 194.214 199.059 193.082 196.616Z" fill="#111A28"/>
<path d="M119.956 218.214L116.856 216.803L118.316 217.48L116.804 216.931C121.665 203.533 135.044 193.158 153.511 188.467C171.864 183.812 188.482 186.324 199.18 195.359C199.792 195.853 200.001 196.723 199.632 197.453C199.208 198.292 198.187 198.631 197.348 198.207C197.229 198.146 197.11 198.069 197.008 197.983C187.162 189.648 171.608 187.375 154.35 191.768C136.994 196.177 124.476 205.772 120.006 218.093C119.991 218.134 119.974 218.175 119.956 218.214Z" fill="#371A45"/>
<path d="M133.205 248.633C133.205 248.633 120.525 228.088 130.297 216.135C140.068 204.182 157.388 199.821 157.265 201.034C157.265 201.034 139.28 210.542 135.63 227.596C132.816 240.748 133.205 248.633 133.205 248.633Z" fill="white"/>
</g>
</svg>
